<?xml version="1.0" encoding="UTF-8" standalone="no"?><!DOCTYPE svg PUBLIC "-//W3C//DTD SVG 1.1//EN" "http://www.w3.org/Graphics/SVG/1.1/DTD/svg11.dtd"><svg width="100%" height="100%" viewBox="0 0 2774 494" version="1.1" xmlns="http://www.w3.org/2000/svg" xmlns:xlink="http://www.w3.org/1999/xlink" xml:space="preserve" xmlns:serif="http://www.serif.com/" style="fill-rule:evenodd;clip-rule:evenodd;stroke-linejoin:round;stroke-miterlimit:2;"><rect id="PUBBLICATO-ULTIMO" serif:id="PUBBLICATO ULTIMO" x="0" y="0" width="2773.15" height="493.636" style="fill:none;"/><g><g><path d="M231.94,8.852l207.825,111.469l-207.825,111.469l-207.825,-111.469l207.825,-111.469Zm0,33.097l146.118,78.372c0,-0 -146.118,78.371 -146.118,78.371c0,0 -146.118,-78.371 -146.118,-78.371l146.118,-78.372Z"/><g><g><path d="M231.799,261.559l207.966,-110.711l0,69.753l-118.358,61.094l117.637,26.436l0.721,65.246l-208.174,111.408l-207.825,-110.893l0,-223.044l72.272,38.096l0.607,146.609l134.946,74.003l0,-0.672l105.333,-57.896l-105.333,-22.932l0,-66.544l0.208,0.047Z" style="fill:url(#_Linear1);"/></g></g></g><g><path d="M686.584,340.901c12.794,-0 22.718,-0.986 30.703,-3.989c7.986,-3.004 13.874,-7.091 17.666,-12.261c3.791,-5.17 5.687,-10.955 5.687,-17.354c-0,-7.695 -2.437,-13.867 -7.31,-18.519c-4.873,-4.651 -11.253,-8.376 -19.138,-11.175c-7.885,-2.8 -16.596,-5.278 -26.132,-7.437c-9.536,-2.158 -19.08,-4.636 -28.633,-7.434c-9.552,-2.797 -18.27,-6.431 -26.154,-10.901c-7.883,-4.47 -14.262,-10.424 -19.135,-17.861c-4.873,-7.437 -7.31,-17.045 -7.31,-28.822c0,-11.48 3.022,-22.018 9.066,-31.612c6.044,-9.594 15.329,-17.294 27.856,-23.1c12.526,-5.806 28.485,-8.709 47.876,-8.709c12.851,-0 25.589,1.712 38.214,5.135c12.626,3.424 23.558,8.283 32.798,14.577l-10.402,25.095c-9.549,-6.182 -19.602,-10.721 -30.157,-13.618c-10.555,-2.896 -20.779,-4.345 -30.67,-4.345c-12.341,0 -22.496,1.6 -30.465,4.8c-7.969,3.199 -13.797,7.43 -17.483,12.691c-3.686,5.26 -5.529,11.194 -5.529,17.801c-0,7.727 2.436,13.917 7.31,18.568c4.873,4.651 11.252,8.332 19.138,11.042c7.885,2.71 16.604,5.189 26.156,7.437c9.553,2.247 19.097,4.733 28.633,7.458c9.536,2.725 18.246,6.279 26.129,10.66c7.884,4.381 14.263,10.273 19.136,17.678c4.873,7.404 7.31,16.889 7.31,28.455c-0,11.303 -3.075,21.751 -9.224,31.345c-6.149,9.594 -15.556,17.286 -28.221,23.076c-12.665,5.79 -28.709,8.685 -48.133,8.685c-0.726,-0 -1.447,-0.005 -2.162,-0.015l-148.703,0l0,-221.439l31.375,0l0,194.056l119.908,-0l-0,0.032Z" style="fill:url(#_Radial2);fill-rule:nonzero;"/><path d="M925.221,368.252l-73.898,-221.439l32.54,0l67.737,204.357l-16.272,-0l70.163,-204.357l29.245,0l68.56,204.357l-15.685,-0l68.803,-204.357l30.087,0l-73.892,221.439l-33.24,0l-64.417,-189.365l8.725,0l-64.95,189.365l-33.506,0Z" style="fill:url(#_Linear3);fill-rule:nonzero;"/><path d="M1261.62,370.002c-17.918,-0 -33.646,-3.666 -47.184,-10.998c-13.537,-7.332 -24.054,-17.45 -31.55,-30.354c-7.495,-12.904 -11.243,-27.637 -11.243,-44.199c-0,-16.594 3.618,-31.328 10.854,-44.201c7.235,-12.873 17.21,-22.975 29.922,-30.307c12.713,-7.332 27.114,-10.998 43.203,-10.998c16.087,0 30.354,3.605 42.801,10.815c12.448,7.21 22.209,17.288 29.282,30.233c7.073,12.945 10.609,28.038 10.609,45.279c0,1.278 -0.044,2.78 -0.133,4.505c-0.089,1.725 -0.222,3.334 -0.399,4.827l-142.404,-0l-0,-22.04l126.403,-0l-12.124,7.681c0.178,-10.779 -2.074,-20.348 -6.755,-28.708c-4.681,-8.36 -11.075,-14.918 -19.182,-19.675c-8.107,-4.756 -17.473,-7.135 -28.098,-7.135c-10.591,0 -19.993,2.379 -28.206,7.135c-8.212,4.757 -14.606,11.36 -19.182,19.809c-4.576,8.449 -6.864,18.24 -6.864,29.375l0,5.007c0,11.233 2.551,21.18 7.653,29.84c5.102,8.66 12.269,15.412 21.501,20.258c9.231,4.846 19.863,7.268 31.895,7.268c9.878,0 18.91,-1.663 27.096,-4.989c8.187,-3.327 15.275,-8.407 21.267,-15.242l16.681,19.658c-7.51,8.858 -16.883,15.598 -28.117,20.221c-11.235,4.623 -23.81,6.935 -37.726,6.935Z" style="fill:url(#_Linear4);fill-rule:nonzero;"/><path d="M1454.73,370.002c-14.229,-0 -27.102,-3.176 -38.621,-9.527c-11.519,-6.352 -20.61,-15.892 -27.272,-28.619c-6.662,-12.728 -9.993,-28.53 -9.993,-47.405c0,-19.089 3.42,-34.936 10.26,-47.54c6.839,-12.604 16.019,-22.083 27.537,-28.436c11.519,-6.353 24.215,-9.53 38.089,-9.53c16.365,0 30.901,3.577 43.607,10.731c12.706,7.154 22.709,17.122 30.009,29.904c7.3,12.783 10.95,27.74 10.95,44.871c-0,17.096 -3.65,32.051 -10.95,44.866c-7.3,12.816 -17.303,22.8 -30.009,29.954c-12.706,7.154 -27.242,10.731 -43.607,10.731Zm-88.562,-1.75l-0,-234.725l30.305,0l-0,111.634l-3.157,38.974l1.825,38.974l-0,45.143l-28.973,0Zm86.164,-24.833c10.691,0 20.272,-2.422 28.744,-7.268c8.472,-4.846 15.199,-11.732 20.179,-20.659c4.98,-8.926 7.47,-19.273 7.47,-31.041c-0,-11.978 -2.49,-22.378 -7.47,-31.201c-4.98,-8.823 -11.707,-15.649 -20.179,-20.478c-8.472,-4.829 -18.053,-7.244 -28.744,-7.244c-10.69,-0 -20.271,2.415 -28.743,7.244c-8.473,4.829 -15.199,11.655 -20.179,20.478c-4.98,8.823 -7.47,19.223 -7.47,31.201c-0,11.768 2.49,22.115 7.47,31.041c4.98,8.927 11.706,15.813 20.179,20.659c8.472,4.846 18.053,7.268 28.743,7.268Z" style="fill:url(#_Linear5);fill-rule:nonzero;"/><path d="M1615.07,368.252l100.197,-221.439l31.109,0l100.459,221.439l-33.122,0l-89.405,-203.822l12.755,-0l-89.405,203.822l-32.588,0Zm42.576,-55.261l8.756,-25.51l124.257,0l9.022,25.51l-142.035,0Z" style="fill:url(#_Linear6);fill-rule:nonzero;"/><path d="M1926.68,431.372c-15.264,0 -30.115,-2.114 -44.552,-6.342c-14.437,-4.227 -26.259,-10.38 -35.466,-18.456l14.812,-23.399c7.707,6.623 17.26,11.881 28.657,15.775c11.397,3.893 23.225,5.84 35.484,5.84c19.838,-0 34.409,-4.61 43.713,-13.828c9.305,-9.218 13.957,-23.282 13.957,-42.19l-0,-35.682l3.156,-33.142l-1.824,-33.403l-0,-45.85l28.973,0l-0,144.721c-0,29.568 -7.372,51.286 -22.115,65.154c-14.743,13.868 -36.341,20.802 -64.795,20.802Zm-3.669,-70.099c-16.218,-0 -30.733,-3.427 -43.544,-10.281c-12.811,-6.854 -22.92,-16.381 -30.327,-28.58c-7.407,-12.199 -11.11,-26.353 -11.11,-42.464c-0,-16.139 3.703,-30.301 11.11,-42.483c7.407,-12.183 17.516,-21.648 30.327,-28.397c12.811,-6.748 27.326,-10.123 43.544,-10.123c14.297,0 27.302,2.93 39.015,8.789c11.713,5.859 21.122,14.79 28.228,26.795c7.106,12.004 10.659,27.144 10.659,45.419c0,18.246 -3.553,33.379 -10.659,45.4c-7.106,12.021 -16.515,21.014 -28.228,26.978c-11.713,5.965 -24.718,8.947 -39.015,8.947Zm3.201,-26.583c11.288,0 21.258,-2.309 29.907,-6.927c8.65,-4.618 15.429,-11.047 20.337,-19.287c4.908,-8.24 7.361,-17.749 7.361,-28.528c0,-10.811 -2.453,-20.319 -7.361,-28.525c-4.908,-8.205 -11.687,-14.572 -20.337,-19.101c-8.649,-4.529 -18.619,-6.794 -29.907,-6.794c-11.079,-0 -20.995,2.265 -29.75,6.794c-8.755,4.529 -15.587,10.896 -20.494,19.101c-4.908,8.206 -7.362,17.714 -7.362,28.525c-0,10.779 2.454,20.288 7.362,28.528c4.907,8.24 11.739,14.669 20.494,19.287c8.755,4.618 18.671,6.927 29.75,6.927Z" style="fill:url(#_Linear7);fill-rule:nonzero;"/><path d="M2135.41,370.002c-17.918,-0 -33.646,-3.666 -47.184,-10.998c-13.538,-7.332 -24.055,-17.45 -31.55,-30.354c-7.496,-12.904 -11.244,-27.637 -11.244,-44.199c0,-16.594 3.618,-31.328 10.854,-44.201c7.236,-12.873 17.21,-22.975 29.923,-30.307c12.712,-7.332 27.113,-10.998 43.203,-10.998c16.086,0 30.353,3.605 42.801,10.815c12.448,7.21 22.208,17.288 29.281,30.233c7.073,12.945 10.61,28.038 10.61,45.279c-0,1.278 -0.044,2.78 -0.133,4.505c-0.089,1.725 -0.222,3.334 -0.4,4.827l-142.404,-0l0,-22.04l126.403,-0l-12.123,7.681c0.177,-10.779 -2.075,-20.348 -6.755,-28.708c-4.681,-8.36 -11.075,-14.918 -19.183,-19.675c-8.107,-4.756 -17.473,-7.135 -28.097,-7.135c-10.592,0 -19.994,2.379 -28.206,7.135c-8.213,4.757 -14.607,11.36 -19.182,19.809c-4.576,8.449 -6.864,18.24 -6.864,29.375l0,5.007c0,11.233 2.551,21.18 7.653,29.84c5.102,8.66 12.268,15.412 21.5,20.258c9.232,4.846 19.864,7.268 31.896,7.268c9.878,0 18.91,-1.663 27.096,-4.989c8.186,-3.327 15.275,-8.407 21.266,-15.242l16.682,19.658c-7.511,8.858 -16.883,15.598 -28.118,20.221c-11.234,4.623 -23.809,6.935 -37.725,6.935Z" style="fill:url(#_Linear8);fill-rule:nonzero;"/><path d="M2239.95,368.252l0,-167.557l28.974,0l-0,45.168l-4.898,-11.903c5.55,-11.134 13.996,-19.754 25.338,-25.858c11.341,-6.104 24.606,-9.157 39.794,-9.157c13.647,0 25.666,2.628 36.059,7.884c10.392,5.256 18.583,13.258 24.571,24.005c5.988,10.747 8.982,24.392 8.982,40.934l-0,96.484l-30.305,0l-0,-93.009c-0,-16.328 -3.957,-28.607 -11.87,-36.837c-7.913,-8.229 -19.086,-12.344 -33.518,-12.344c-10.579,-0 -19.869,2.142 -27.871,6.428c-8.002,4.285 -14.161,10.535 -18.477,18.748c-4.316,8.213 -6.474,18.388 -6.474,30.525l0,86.489l-30.305,0Z" style="fill:url(#_Linear9);fill-rule:nonzero;"/><path d="M2517.16,370.002c-16.965,-0 -32.119,-3.666 -45.463,-10.998c-13.343,-7.332 -23.799,-17.442 -31.367,-30.329c-7.568,-12.888 -11.352,-27.629 -11.352,-44.224c-0,-16.772 3.784,-31.559 11.352,-44.359c7.568,-12.8 18.024,-22.858 31.367,-30.174c13.344,-7.315 28.498,-10.973 45.463,-10.973c15.162,0 28.691,3.016 40.586,9.048c11.895,6.032 21.138,14.991 27.728,26.877l-23.084,14.631c-5.426,-8.113 -12.074,-14.137 -19.944,-18.071c-7.871,-3.935 -16.388,-5.902 -25.553,-5.902c-10.9,-0 -20.684,2.415 -29.35,7.244c-8.666,4.829 -15.498,11.655 -20.494,20.478c-4.997,8.823 -7.495,19.223 -7.495,31.201c-0,11.979 2.498,22.378 7.495,31.2c4.996,8.821 11.828,15.654 20.494,20.5c8.666,4.846 18.45,7.268 29.35,7.268c9.165,0 17.682,-1.93 25.553,-5.79c7.87,-3.861 14.518,-9.92 19.944,-18.177l23.084,14.625c-6.59,11.708 -15.833,20.623 -27.728,26.744c-11.895,6.12 -25.424,9.181 -40.586,9.181Z" style="fill:url(#_Linear10);fill-rule:nonzero;"/><path d="M2614.2,431.372c-8.043,0 -15.863,-1.302 -23.461,-3.905c-7.597,-2.603 -14.05,-6.419 -19.357,-11.447l12.997,-22.693c4.064,3.928 8.65,6.955 13.757,9.08c5.106,2.125 10.478,3.188 16.114,3.188c7.287,0 13.376,-1.911 18.267,-5.733c4.891,-3.823 9.466,-10.514 13.724,-20.073l10.398,-23.103l2.91,-4.083l65.892,-151.908l29.654,0l-81.212,184.462c-4.887,11.708 -10.32,20.955 -16.299,27.741c-5.98,6.787 -12.542,11.562 -19.686,14.327c-7.144,2.765 -15.043,4.147 -23.698,4.147Zm39.702,-57.772l-76.172,-172.905l31.518,0l64.827,149.234l-20.173,23.671Z" style="fill:url(#_Linear11);fill-rule:nonzero;"/></g></g><defs><linearGradient id="_Linear1" x1="0" y1="0" x2="1" y2="0" gradientUnits="userSpaceOnUse" gradientTransform="matrix(387.329,-193.643,193.643,387.329,52.4357,344.492)"><stop offset="0" style="stop-color:#760cab;stop-opacity:1"/><stop offset="1" style="stop-color:#e70296;stop-opacity:1"/></linearGradient><radialGradient id="_Radial2" cx="0" cy="0" r="1" gradientUnits="userSpaceOnUse" gradientTransform="matrix(-2195.69,1.24398e-12,-1.24398e-12,-2195.69,-2466.6,2276.55)"><stop offset="0" style="stop-color:#bf00be;stop-opacity:1"/><stop offset="1" style="stop-color:#000;stop-opacity:1"/></radialGradient><linearGradient id="_Linear3" x1="0" y1="0" x2="1" y2="0" gradientUnits="userSpaceOnUse" gradientTransform="matrix(-2310.42,1.30898e-12,-1.30898e-12,-2310.42,2755.09,282.45)"><stop offset="0" style="stop-color:#bf00be;stop-opacity:1"/><stop offset="0.44" style="stop-color:#850084;stop-opacity:1"/><stop offset="1" style="stop-color:#000;stop-opacity:1"/></linearGradient><linearGradient id="_Linear4" x1="0" y1="0" x2="1" y2="0" gradientUnits="userSpaceOnUse" gradientTransform="matrix(-2310.42,1.30898e-12,-1.30898e-12,-2310.42,2755.09,282.45)"><stop offset="0" style="stop-color:#bf00be;stop-opacity:1"/><stop offset="0.44" style="stop-color:#850084;stop-opacity:1"/><stop offset="1" style="stop-color:#000;stop-opacity:1"/></linearGradient><linearGradient id="_Linear5" x1="0" y1="0" x2="1" y2="0" gradientUnits="userSpaceOnUse" gradientTransform="matrix(-2310.42,1.30898e-12,-1.30898e-12,-2310.42,2755.09,282.45)"><stop offset="0" style="stop-color:#bf00be;stop-opacity:1"/><stop offset="0.44" style="stop-color:#850084;stop-opacity:1"/><stop offset="1" style="stop-color:#000;stop-opacity:1"/></linearGradient><linearGradient id="_Linear6" x1="0" y1="0" x2="1" y2="0" gradientUnits="userSpaceOnUse" gradientTransform="matrix(-2310.42,1.30898e-12,-1.30898e-12,-2310.42,2755.09,282.45)"><stop offset="0" style="stop-color:#bf00be;stop-opacity:1"/><stop offset="0.44" style="stop-color:#850084;stop-opacity:1"/><stop offset="1" style="stop-color:#000;stop-opacity:1"/></linearGradient><linearGradient id="_Linear7" x1="0" y1="0" x2="1" y2="0" gradientUnits="userSpaceOnUse" gradientTransform="matrix(-2310.42,1.30898e-12,-1.30898e-12,-2310.42,2755.09,282.45)"><stop offset="0" style="stop-color:#bf00be;stop-opacity:1"/><stop offset="0.44" style="stop-color:#850084;stop-opacity:1"/><stop offset="1" style="stop-color:#000;stop-opacity:1"/></linearGradient><linearGradient id="_Linear8" x1="0" y1="0" x2="1" y2="0" gradientUnits="userSpaceOnUse" gradientTransform="matrix(-2310.42,1.30898e-12,-1.30898e-12,-2310.42,2755.09,282.45)"><stop offset="0" style="stop-color:#bf00be;stop-opacity:1"/><stop offset="0.44" style="stop-color:#850084;stop-opacity:1"/><stop offset="1" style="stop-color:#000;stop-opacity:1"/></linearGradient><linearGradient id="_Linear9" x1="0" y1="0" x2="1" y2="0" gradientUnits="userSpaceOnUse" gradientTransform="matrix(-2310.42,1.30898e-12,-1.30898e-12,-2310.42,2755.09,282.45)"><stop offset="0" style="stop-color:#bf00be;stop-opacity:1"/><stop offset="0.44" style="stop-color:#850084;stop-opacity:1"/><stop offset="1" style="stop-color:#000;stop-opacity:1"/></linearGradient><linearGradient id="_Linear10" x1="0" y1="0" x2="1" y2="0" gradientUnits="userSpaceOnUse" gradientTransform="matrix(-2310.42,1.30898e-12,-1.30898e-12,-2310.42,2755.09,282.45)"><stop offset="0" style="stop-color:#bf00be;stop-opacity:1"/><stop offset="0.44" style="stop-color:#850084;stop-opacity:1"/><stop offset="1" style="stop-color:#000;stop-opacity:1"/></linearGradient><linearGradient id="_Linear11" x1="0" y1="0" x2="1" y2="0" gradientUnits="userSpaceOnUse" gradientTransform="matrix(-2310.42,1.30898e-12,-1.30898e-12,-2310.42,2755.09,282.45)"><stop offset="0" style="stop-color:#bf00be;stop-opacity:1"/><stop offset="0.44" style="stop-color:#850084;stop-opacity:1"/><stop offset="1" style="stop-color:#000;stop-opacity:1"/></linearGradient></defs></svg>