<?xml version="1.0" encoding="UTF-8" standalone="no"?><!DOCTYPE svg PUBLIC "-//W3C//DTD SVG 1.1//EN" "http://www.w3.org/Graphics/SVG/1.1/DTD/svg11.dtd"><svg width="100%" height="100%" viewBox="0 0 2766 494" version="1.1" xmlns="http://www.w3.org/2000/svg" xmlns:xlink="http://www.w3.org/1999/xlink" xml:space="preserve" xmlns:serif="http://www.serif.com/" style="fill-rule:evenodd;clip-rule:evenodd;stroke-linejoin:round;stroke-miterlimit:2;"><rect id="VERSIONE-SITO-DARK" serif:id="VERSIONE SITO DARK" x="0" y="0" width="2765.66" height="493.636" style="fill:none;"/><g><g><path d="M221.597,10.587l207.825,111.469l-207.825,111.469l-207.825,-111.469l207.825,-111.469Zm0,33.097l146.118,78.372c0,-0 -146.118,78.372 -146.118,78.372c0,-0 -146.118,-78.372 -146.118,-78.372l146.118,-78.372Z" style="fill:#f2f2f2;"/><g><g><path d="M221.456,263.294l207.966,-110.71l0,69.752l-118.358,61.095l117.637,26.435l0.721,65.246l-208.174,111.408l-207.825,-110.893l0,-223.043l72.272,38.095l0.607,146.61l134.946,74.002l0,-0.672l105.333,-57.896l-105.333,-22.932l0,-66.544l0.208,0.047Z" style="fill:#f2f2f2;"/></g></g></g><g><path d="M676.241,342.636c12.795,0 22.718,-0.986 30.703,-3.989c7.986,-3.004 13.874,-7.091 17.666,-12.261c3.791,-5.17 5.687,-10.955 5.687,-17.354c-0,-7.694 -2.437,-13.867 -7.31,-18.518c-4.873,-4.652 -11.252,-8.377 -19.138,-11.176c-7.885,-2.799 -16.596,-5.278 -26.132,-7.437c-9.536,-2.158 -19.08,-4.636 -28.632,-7.434c-9.553,-2.797 -18.271,-6.431 -26.155,-10.901c-7.883,-4.47 -14.262,-10.424 -19.135,-17.861c-4.873,-7.437 -7.31,-17.044 -7.31,-28.822c0,-11.48 3.022,-22.017 9.066,-31.611c6.044,-9.594 15.329,-17.295 27.856,-23.101c12.527,-5.806 28.485,-8.709 47.876,-8.709c12.851,-0 25.589,1.712 38.214,5.136c12.626,3.423 23.558,8.282 32.798,14.576l-10.402,25.095c-9.549,-6.182 -19.601,-10.721 -30.157,-13.618c-10.555,-2.896 -20.778,-4.345 -30.67,-4.345c-12.341,0 -22.496,1.6 -30.465,4.8c-7.969,3.2 -13.797,7.43 -17.483,12.691c-3.686,5.26 -5.529,11.194 -5.529,17.801c-0,7.728 2.437,13.917 7.31,18.568c4.873,4.651 11.252,8.332 19.138,11.042c7.885,2.711 16.604,5.189 26.156,7.437c9.553,2.247 19.097,4.733 28.633,7.459c9.536,2.725 18.246,6.278 26.13,10.659c7.883,4.381 14.262,10.273 19.135,17.678c4.873,7.404 7.31,16.889 7.31,28.456c-0,11.302 -3.075,21.751 -9.224,31.345c-6.149,9.594 -15.556,17.285 -28.221,23.075c-12.665,5.79 -28.709,8.685 -48.133,8.685c-0.726,-0 -1.447,-0.005 -2.162,-0.015l-148.703,0l0,-221.438l31.376,-0l-0,194.055l119.907,0l-0,0.032Z" style="fill:#f2f2f2;fill-rule:nonzero;"/><path d="M914.878,369.987l-73.897,-221.438l32.539,-0l67.737,204.356l-16.272,-0l70.163,-204.356l29.245,-0l68.56,204.356l-15.685,-0l68.803,-204.356l30.088,-0l-73.893,221.438l-33.24,0l-64.417,-189.364l8.725,-0l-64.95,189.364l-33.506,0Z" style="fill:#f2f2f2;fill-rule:nonzero;"/><path d="M1251.28,371.737c-17.918,0 -33.646,-3.666 -47.183,-10.998c-13.538,-7.332 -24.055,-17.45 -31.551,-30.354c-7.495,-12.904 -11.243,-27.637 -11.243,-44.198c-0,-16.595 3.618,-31.329 10.854,-44.202c7.236,-12.872 17.21,-22.975 29.922,-30.307c12.713,-7.331 27.114,-10.997 43.203,-10.997c16.087,-0 30.354,3.605 42.801,10.814c12.448,7.21 22.209,17.288 29.282,30.233c7.073,12.946 10.609,28.038 10.609,45.279c0,1.279 -0.044,2.78 -0.133,4.505c-0.089,1.726 -0.222,3.334 -0.399,4.827l-142.404,0l-0,-22.04l126.403,0l-12.124,7.681c0.178,-10.778 -2.074,-20.348 -6.755,-28.708c-4.681,-8.36 -11.075,-14.918 -19.182,-19.675c-8.107,-4.756 -17.473,-7.135 -28.098,-7.135c-10.591,0 -19.993,2.379 -28.206,7.135c-8.212,4.757 -14.606,11.36 -19.182,19.809c-4.576,8.449 -6.863,18.24 -6.863,29.375l-0,5.007c-0,11.233 2.55,21.18 7.652,29.84c5.102,8.66 12.269,15.412 21.501,20.258c9.232,4.846 19.863,7.269 31.895,7.269c9.878,-0 18.91,-1.664 27.097,-4.99c8.186,-3.327 15.274,-8.407 21.266,-15.241l16.681,19.657c-7.51,8.858 -16.883,15.598 -28.117,20.221c-11.235,4.623 -23.81,6.935 -37.726,6.935Z" style="fill:#f2f2f2;fill-rule:nonzero;"/><path d="M1444.38,371.737c-14.229,0 -27.102,-3.176 -38.621,-9.527c-11.519,-6.352 -20.61,-15.891 -27.272,-28.619c-6.662,-12.728 -9.993,-28.529 -9.993,-47.404c0,-19.09 3.42,-34.936 10.26,-47.541c6.839,-12.604 16.019,-22.082 27.537,-28.436c11.519,-6.353 24.215,-9.529 38.089,-9.529c16.365,-0 30.901,3.577 43.607,10.73c12.706,7.154 22.709,17.122 30.009,29.905c7.3,12.782 10.95,27.739 10.95,44.871c0,17.095 -3.65,32.051 -10.95,44.866c-7.3,12.815 -17.303,22.799 -30.009,29.953c-12.706,7.154 -27.242,10.731 -43.607,10.731Zm-88.562,-1.75l-0,-234.725l30.305,0l-0,111.634l-3.157,38.974l1.825,38.974l0,45.143l-28.973,0Zm86.165,-24.832c10.69,-0 20.271,-2.423 28.743,-7.269c8.472,-4.846 15.199,-11.732 20.179,-20.658c4.98,-8.927 7.47,-19.274 7.47,-31.041c-0,-11.979 -2.49,-22.379 -7.47,-31.202c-4.98,-8.823 -11.707,-15.649 -20.179,-20.478c-8.472,-4.829 -18.053,-7.244 -28.743,-7.244c-10.691,0 -20.272,2.415 -28.744,7.244c-8.472,4.829 -15.199,11.655 -20.179,20.478c-4.98,8.823 -7.47,19.223 -7.47,31.202c0,11.767 2.49,22.114 7.47,31.041c4.98,8.926 11.707,15.812 20.179,20.658c8.472,4.846 18.053,7.269 28.744,7.269Z" style="fill:#f2f2f2;fill-rule:nonzero;"/><path d="M1604.73,369.987l100.197,-221.438l31.109,-0l100.459,221.438l-33.122,0l-89.405,-203.822l12.756,-0l-89.406,203.822l-32.588,0Zm42.577,-55.261l8.755,-25.509l124.257,-0l9.022,25.509l-142.034,0Z" style="fill:#f2f2f2;fill-rule:nonzero;"/><path d="M1916.34,433.107c-15.264,0 -30.115,-2.114 -44.552,-6.341c-14.437,-4.228 -26.259,-10.38 -35.466,-18.457l14.812,-23.399c7.707,6.623 17.26,11.881 28.657,15.775c11.397,3.893 23.225,5.84 35.484,5.84c19.838,-0 34.409,-4.61 43.714,-13.828c9.304,-9.218 13.956,-23.281 13.956,-42.189l-0,-35.683l3.157,-33.141l-1.825,-33.404l-0,-45.85l28.973,0l-0,144.721c-0,29.568 -7.372,51.286 -22.115,65.154c-14.743,13.868 -36.341,20.802 -64.795,20.802Zm-3.669,-70.099c-16.218,0 -30.733,-3.427 -43.544,-10.281c-12.811,-6.854 -22.92,-16.381 -30.327,-28.58c-7.407,-12.198 -11.11,-26.353 -11.11,-42.463c-0,-16.14 3.703,-30.302 11.11,-42.484c7.407,-12.182 17.516,-21.648 30.327,-28.397c12.811,-6.748 27.326,-10.122 43.544,-10.122c14.297,-0 27.302,2.929 39.015,8.788c11.713,5.859 21.122,14.791 28.228,26.795c7.106,12.004 10.659,27.144 10.659,45.42c0,18.245 -3.553,33.379 -10.659,45.4c-7.106,12.02 -16.515,21.013 -28.228,26.977c-11.713,5.965 -24.718,8.947 -39.015,8.947Zm3.201,-26.583c11.288,0 21.258,-2.309 29.908,-6.927c8.649,-4.618 15.428,-11.047 20.336,-19.287c4.908,-8.24 7.362,-17.749 7.362,-28.527c-0,-10.812 -2.454,-20.32 -7.362,-28.525c-4.908,-8.206 -11.687,-14.573 -20.336,-19.102c-8.65,-4.529 -18.62,-6.794 -29.908,-6.794c-11.078,0 -20.995,2.265 -29.75,6.794c-8.755,4.529 -15.587,10.896 -20.494,19.102c-4.908,8.205 -7.362,17.713 -7.362,28.525c-0,10.778 2.454,20.287 7.362,28.527c4.907,8.24 11.739,14.669 20.494,19.287c8.755,4.618 18.672,6.927 29.75,6.927Z" style="fill:#f2f2f2;fill-rule:nonzero;"/><path d="M2125.07,371.737c-17.918,0 -33.646,-3.666 -47.184,-10.998c-13.538,-7.332 -24.054,-17.45 -31.55,-30.354c-7.496,-12.904 -11.244,-27.637 -11.244,-44.198c0,-16.595 3.618,-31.329 10.854,-44.202c7.236,-12.872 17.21,-22.975 29.923,-30.307c12.712,-7.331 27.113,-10.997 43.203,-10.997c16.086,-0 30.353,3.605 42.801,10.814c12.448,7.21 22.208,17.288 29.281,30.233c7.074,12.946 10.61,28.038 10.61,45.279c0,1.279 -0.044,2.78 -0.133,4.505c-0.089,1.726 -0.222,3.334 -0.4,4.827l-142.404,0l0,-22.04l126.404,0l-12.124,7.681c0.177,-10.778 -2.074,-20.348 -6.755,-28.708c-4.681,-8.36 -11.075,-14.918 -19.182,-19.675c-8.108,-4.756 -17.474,-7.135 -28.098,-7.135c-10.592,0 -19.994,2.379 -28.206,7.135c-8.213,4.757 -14.607,11.36 -19.182,19.809c-4.576,8.449 -6.864,18.24 -6.864,29.375l0,5.007c0,11.233 2.551,21.18 7.653,29.84c5.102,8.66 12.268,15.412 21.5,20.258c9.232,4.846 19.864,7.269 31.896,7.269c9.878,-0 18.91,-1.664 27.096,-4.99c8.186,-3.327 15.275,-8.407 21.266,-15.241l16.682,19.657c-7.511,8.858 -16.883,15.598 -28.118,20.221c-11.234,4.623 -23.809,6.935 -37.725,6.935Z" style="fill:#f2f2f2;fill-rule:nonzero;"/><path d="M2229.61,369.987l-0,-167.557l28.973,0l-0,45.168l-4.898,-11.902c5.55,-11.135 13.996,-19.754 25.338,-25.859c11.341,-6.104 24.606,-9.156 39.794,-9.156c13.647,-0 25.666,2.628 36.059,7.883c10.393,5.256 18.583,13.258 24.571,24.005c5.988,10.748 8.982,24.392 8.982,40.934l-0,96.484l-30.305,0l-0,-93.009c-0,-16.328 -3.957,-28.607 -11.87,-36.836c-7.913,-8.23 -19.086,-12.345 -33.518,-12.345c-10.579,-0 -19.869,2.143 -27.871,6.428c-8.002,4.286 -14.161,10.535 -18.477,18.748c-4.316,8.214 -6.474,18.388 -6.474,30.525l0,86.489l-30.304,0Z" style="fill:#f2f2f2;fill-rule:nonzero;"/><path d="M2506.82,371.737c-16.965,0 -32.119,-3.666 -45.462,-10.998c-13.344,-7.332 -23.8,-17.441 -31.368,-30.329c-7.568,-12.888 -11.352,-27.629 -11.352,-44.223c-0,-16.773 3.784,-31.56 11.352,-44.36c7.568,-12.8 18.024,-22.858 31.368,-30.173c13.343,-7.316 28.497,-10.973 45.462,-10.973c15.162,-0 28.691,3.016 40.586,9.047c11.896,6.032 21.138,14.991 27.728,26.877l-23.084,14.631c-5.426,-8.113 -12.074,-14.137 -19.944,-18.071c-7.871,-3.935 -16.388,-5.902 -25.553,-5.902c-10.9,0 -20.684,2.415 -29.35,7.244c-8.666,4.829 -15.498,11.655 -20.494,20.478c-4.997,8.823 -7.495,19.223 -7.495,31.202c-0,11.978 2.498,22.377 7.495,31.199c4.996,8.821 11.828,15.654 20.494,20.5c8.666,4.846 18.45,7.269 29.35,7.269c9.165,-0 17.682,-1.931 25.553,-5.791c7.87,-3.86 14.518,-9.919 19.944,-18.177l23.084,14.626c-6.59,11.707 -15.832,20.622 -27.728,26.743c-11.895,6.121 -25.424,9.181 -40.586,9.181Z" style="fill:#f2f2f2;fill-rule:nonzero;"/><path d="M2603.86,433.107c-8.044,0 -15.864,-1.301 -23.462,-3.905c-7.597,-2.603 -14.05,-6.419 -19.357,-11.447l12.997,-22.693c4.064,3.928 8.65,6.955 13.757,9.08c5.106,2.126 10.478,3.188 16.114,3.188c7.287,0 13.376,-1.911 18.267,-5.733c4.891,-3.823 9.466,-10.514 13.725,-20.073l10.397,-23.103l2.91,-4.083l65.893,-151.908l29.653,0l-81.212,184.462c-4.887,11.708 -10.32,20.955 -16.299,27.741c-5.98,6.787 -12.542,11.562 -19.686,14.327c-7.143,2.765 -15.043,4.147 -23.697,4.147Zm39.701,-57.772l-76.172,-172.905l31.518,0l64.827,149.234l-20.173,23.671Z" style="fill:#f2f2f2;fill-rule:nonzero;"/></g></g></svg>