<svg xmlns="http://www.w3.org/2000/svg" viewBox="0 0 24 24" fill="currentColor">
  <path d="M17.472 14.382c-.297-.149-1.758-.867-2.031-.966-.273-.099-.472-.149-.671.149-.198.297-.768.966-.942 1.164-.173.198-.347.223-.644.074-.297-.149-1.254-.462-2.39-1.475-.883-.788-1.48-1.761-1.654-2.059-.173-.297-.018-.458.13-.606.134-.133.297-.347.446-.521.149-.173.198-.297.298-.496.099-.198.05-.372-.025-.521-.075-.149-.671-1.615-.921-2.214-.242-.58-.487-.5-.671-.51l-.572-.01c-.198 0-.52.074-.792.372-.272.297-1.04 1.016-1.04 2.48s1.064 2.876 1.213 3.074c.149.198 2.095 3.2 5.078 4.487.71.306 1.263.489 1.694.626.712.227 1.36.195 1.874.118.571-.085 1.758-.718 2.007-1.412.248-.694.248-1.289.173-1.412-.074-.124-.272-.198-.57-.347zM12.04 2c5.523 0 10 4.477 10 10 0 5.522-4.477 10-10 10-1.757 0-3.4-.45-4.83-1.24L2 22l1.33-5.064A9.94 9.94 0 0 1 2.04 12c0-5.523 4.477-10 10-10z"/>
</svg>